<svg xmlns="http://www.w3.org/2000/svg" viewBox="0 0 740.76 355.64"  xmlns:v="https://vecta.io/nano"><path d="M353.19 353.12L40 217.65c-19-7.59-19-40.12 0-47.71l313.21-136c19.59-5.17 32.32-.43 36.56 1.27l336.77 134.73c19 7.59 19 40.12 0 47.71L389.78 352.39c-14.55 5.81-32.36 2.39-36.59.73z" fill="#a3342e"/><path d="M351 352.39L14.22 217.62c-19-7.59-19-40.12 0-47.71L351 35.17a17.13 17.13 0 0 1 13 0l336.68 134.77c19 7.59 19 40.12 0 47.71L363.92 352.39a17.34 17.34 0 0 1-12.92 0z" fill="#dc382b"/><path d="M357.45 343.32a7.6 7.6 0 0 1-2.66-.51L18.06 208c-5.69-2.27-7.71-9.1-7.71-14.24s2-12 7.74-14.28l336.76-134.7a7.19 7.19 0 0 1 5.32 0l336.76 134.74c5.72 2.27 7.74 9.1 7.74 14.28s-2 12-7.74 14.27L360.17 342.81a8.2 8.2 0 0 1-2.72.51z" fill="none" stroke="#fcf3e7" stroke-width="2.42" stroke-miterlimit="10"/><ellipse cx="374.54" cy="41.52" rx="154.49" ry="41.37" fill="#0a1740" stroke="#3e54e5" stroke-width=".3"/><ellipse cx="366.19" cy="41.52" rx="154.49" ry="41.37" fill="#404cee"/><ellipse cx="365.8" cy="41.21" rx="145.75" ry="36.53" fill="#fcf3e7"/><ellipse cx="365.89" cy="41.21" rx="138.43" ry="32.02" fill="none" stroke="#404cee" stroke-width="1.21"/><path d="M366.19 20.84l5.76 11.67 12.88 1.87-9.32 9.09 2.2 12.82-11.52-6.05-11.52 6.05 2.2-12.82-9.32-9.09 12.88-1.87 5.76-11.67zm44.56 7.68l3.26 6.62 7.3 1.06-5.28 5.15 1.25 7.27-6.53-3.44-6.53 3.44 1.25-7.27-5.29-5.15 7.31-1.06 3.26-6.62zm-89.12 0l-3.26 6.62-7.31 1.06 5.29 5.15-1.25 7.27 6.53-3.44 6.53 3.44-1.25-7.27 5.29-5.15-7.31-1.06-3.26-6.62z" fill="#3541cc"/></svg>