<svg xmlns="http://www.w3.org/2000/svg" xmlns:xlink="http://www.w3.org/1999/xlink" viewBox="0 0 396.75 224.47" xmlns:v="https://vecta.io/nano"><path d="M396.75,126.81c0,53.94-69.95,97.66-156.21,97.66S27,180.75,27,126.81,151.62,9.14,237.88,9.14,396.75,72.87,396.75,126.81Z" fill="#dc382b"/><path d="M351.22 71.92L121.53 58.84l8.1-45.13L386.5 0l-35.28 71.92z" fill="#404cee"/><ellipse cx="89.16" cy="35.96" rx="85.12" ry="35.96" fill="#081642"/><ellipse cx="85.12" cy="35.96" rx="85.12" ry="35.96" fill="#404cee"/><g fill="#fff3e5"><path d="M47.81 24.24a.36.36 0 0 1 .42.3.24.24 0 0 1 0 .12v2.59a.36.36 0 0 1-.3.42h-3.12v16.91a.37.37 0 0 1-.42.42h-2.7a.37.37 0 0 1-.42-.31.2.2 0 0 1 0-.11V27.65h-3a.39.39 0 0 1-.42-.35v-2.66a.38.38 0 0 1 .36-.42h.06zm1.72 6.32c0-2.44 1.29-3.74 3.74-3.74h2.91c2.43 0 3.74 1.3 3.74 3.74v10.7c0 2.44-1.31 3.74-3.74 3.74h-2.91c-2.45 0-3.74-1.3-3.74-3.74zm6.08 11.09a.92.92 0 0 0 1-.76.76.76 0 0 0 0-.3V31.2a.92.92 0 0 0-.78-1.05h-1.89a.92.92 0 0 0-1 .78 1.22 1.22 0 0 0 0 .27v9.4a.93.93 0 0 0 .78 1.06 1.22 1.22 0 0 0 .27 0zm6.9-11.09c0-2.44 1.3-3.74 3.74-3.74h2.91c2.44 0 3.74 1.3 3.74 3.74v10.7c0 2.44-1.3 3.74-3.74 3.74h-2.91c-2.44 0-3.74-1.3-3.74-3.74zm6.07 11.09a.94.94 0 0 0 1.06-.78 1.31 1.31 0 0 0 0-.28V31.2a.93.93 0 0 0-.79-1.05h-1.92a.93.93 0 0 0-1.06.78 1.22 1.22 0 0 0 0 .27v9.4a.94.94 0 0 0 .78 1.06 1.31 1.31 0 0 0 .28 0zM79 41.57h5.15a.36.36 0 0 1 .41.3v2.71c0 .29-.13.42-.41.42h-8.28a.38.38 0 0 1-.41-.32V27.23a.38.38 0 0 1 .35-.41h2.8a.36.36 0 0 1 .41.32.14.14 0 0 1 0 .09zm25.08-8.83a1.88 1.88 0 0 1-1.64 1.85h0a1.86 1.86 0 0 1 1.64 1.84v4.77c0 2.45-1.32 3.74-3.77 3.74h-6.23a.37.37 0 0 1-.41-.34v-20a.37.37 0 0 1 .31-.42h6.33c2.45 0 3.77 1.3 3.77 3.74zm-3.45-4.06a.92.92 0 0 0-.76-1.05.76.76 0 0 0-.3 0h-2.35v5.27h2.36a.93.93 0 0 0 1.06-.76 1.41 1.41 0 0 0 0-.29zm0 8.68a.93.93 0 0 0-.76-1.06h-2.65v5.27h2.36a.93.93 0 0 0 1.06-.78 1.22 1.22 0 0 0 0-.27zm6.05-6.8c0-2.44 1.29-3.74 3.74-3.74h2.91c2.43 0 3.74 1.3 3.74 3.74v10.7c0 2.44-1.31 3.74-3.74 3.74h-2.91c-2.45 0-3.74-1.3-3.74-3.74zm6.08 11.09a.92.92 0 0 0 1-.76.76.76 0 0 0 0-.3V31.2a.92.92 0 0 0-.78-1.05h-1.94a.91.91 0 0 0-1 .78.61.61 0 0 0 0 .27v9.4a.93.93 0 0 0 .78 1.06 1.22 1.22 0 0 0 .27 0zM132 44.38c.19.35 0 .62-.39.62H129a.61.61 0 0 1-.61-.37L125.63 39l-2.75 5.63a.6.6 0 0 1-.6.37h-2.67c-.41 0-.57-.27-.39-.63l4.38-8.67-4.12-8.29c-.19-.34 0-.62.39-.62h2.67a.59.59 0 0 1 .6.36l2.49 5.26 2.49-5.26a.61.61 0 0 1 .6-.36h2.68c.41 0 .57.28.39.62l-4.11 8.26zm56.59-14.26v-1.18a2.56 2.56 0 0 1-.34.42 3.84 3.84 0 0 1-2.76 1 4.41 4.41 0 0 1-1.93-.41 4.13 4.13 0 0 1-2.28-3.95 4.88 4.88 0 0 1 1.16-3.22 4.06 4.06 0 0 1 3.21-1.34 4.69 4.69 0 0 1 1.56.25 3.94 3.94 0 0 1 2 1.57 4.94 4.94 0 0 1 .35.64l-1.17.3a2.66 2.66 0 0 0-.54-.95 2.92 2.92 0 0 0-2.17-.87 2.82 2.82 0 0 0-2.29 1 3.66 3.66 0 0 0-.87 2.52 4 4 0 0 0 .66 2.29 2.82 2.82 0 0 0 2.47 1.2 3.38 3.38 0 0 0 1.87-.55 2.46 2.46 0 0 0 1.06-2.21h-3v-1h3.93v4.47zm4.8-4.68a1.39 1.39 0 0 0-1.14 1 3.5 3.5 0 0 0-.08 1v2.61h-1v-5.57h1v1a2 2 0 0 1 .52-.65 2.21 2.21 0 0 1 1.41-.46v1a1.82 1.82 0 0 0-.71.07zm6.01 4.76a1.17 1.17 0 0 1-.6-.15 1 1 0 0 1-.19-.21.93.93 0 0 1-.19-.48 2.52 2.52 0 0 1-1.93.92 2.27 2.27 0 0 1-.78-.12 1.57 1.57 0 0 1-1.14-1.5 1.52 1.52 0 0 1 .61-1.22 4.74 4.74 0 0 1 2.29-.64l.86-.06v-.47a1.12 1.12 0 0 0-1.26-1.27 1.14 1.14 0 0 0-1.16.68 1.4 1.4 0 0 0-.06.5l-1-.06a2.15 2.15 0 0 1 .09-.55A2 2 0 0 1 197 24.3a3.29 3.29 0 0 1 .88.12 1.75 1.75 0 0 1 1.26 1 3.4 3.4 0 0 1 .12 1.21v1.85a2.3 2.3 0 0 0 0 .37c0 .13 0 .43.42.43a1.26 1.26 0 0 0 .28 0v.8a1.87 1.87 0 0 1-.56.12zm-1.07-2.73v-.1a11.92 11.92 0 0 0-2 .4 1 1 0 0 0-.7.87c0 .42.32.84 1.07.84a1.55 1.55 0 0 0 1.66-1.67l-.03-.34zm7.53 1.9a2.37 2.37 0 0 1-.89.72 2.82 2.82 0 0 1-1.12.21 2.41 2.41 0 0 1-1.29-.33 2.09 2.09 0 0 1-.64-.58v.73h-1v-8.46h1v3.6a1.29 1.29 0 0 1 .27-.33 2.35 2.35 0 0 1 1.68-.63 2.42 2.42 0 0 1 1.9.85 3.05 3.05 0 0 1 .7 2.14 3.4 3.4 0 0 1-.61 2.08zm-.67-3.32a1.68 1.68 0 0 0-1.49-.88 1.66 1.66 0 0 0-1.25.52 2.17 2.17 0 0 0-.55 1.63 2.59 2.59 0 0 0 .26 1.25 1.66 1.66 0 0 0 1.54.92 1.6 1.6 0 0 0 .91-.25 2.27 2.27 0 0 0 .84-2 2.49 2.49 0 0 0-.26-1.19zm8.23-3.51a2.93 2.93 0 0 0-.52-.06.64.64 0 0 0-.61.33 1.19 1.19 0 0 0-.11.68v1h1.07v.79h-1.07v4.85h-.93v-4.86h-.94v-.79h.94V24a4 4 0 0 1 .14-1.48 1.35 1.35 0 0 1 1.34-.78 3.88 3.88 0 0 1 .7.07zm2.98 2.9a1.37 1.37 0 0 0-1.14 1 3.13 3.13 0 0 0-.09 1v2.61h-1v-5.57h1v1a2 2 0 0 1 .53-.65 2.18 2.18 0 0 1 1.4-.46v1a1.76 1.76 0 0 0-.7.07zm6.15 3.92a2.58 2.58 0 0 1-2.1.94 2.67 2.67 0 0 1-1.95-.74 3 3 0 0 1-.83-2.23 3.3 3.3 0 0 1 .65-2 2.55 2.55 0 0 1 2.17-1 3 3 0 0 1 1.12.21 2.8 2.8 0 0 1 1.6 2.8 3.39 3.39 0 0 1-.66 2.02zm-.66-3.5a1.51 1.51 0 0 0-.35-.44 1.59 1.59 0 0 0-1-.36c-1.81 0-1.8 2-1.8 2.31a3.86 3.86 0 0 0 0 .57 1.7 1.7 0 0 0 1.69 1.6 1.57 1.57 0 0 0 1.34-.71 3.29 3.29 0 0 0 .39-1.54 3 3 0 0 0-.27-1.43zm9.33 4.26v-3.31c0-.55.09-1.18-.51-1.5a1.4 1.4 0 0 0-.52-.11 1.5 1.5 0 0 0-1.35.93 2.74 2.74 0 0 0-.07.82v3.17h-.94V27c0-.53.1-1.22-.43-1.56a1 1 0 0 0-.61-.18 1.09 1.09 0 0 0-.35.05 1.48 1.48 0 0 0-1 .79 1.85 1.85 0 0 0-.08.72v3.35h-.9v-5.69h.9v.75a4.17 4.17 0 0 1 .36-.37 1.89 1.89 0 0 1 1.33-.56 1.57 1.57 0 0 1 1.18.52 3.64 3.64 0 0 1 .35.52l.19-.19a2.41 2.41 0 0 1 1.7-.85 1.76 1.76 0 0 1 1.31.62 2.37 2.37 0 0 1 .38 1.67v3.53zm9.5 0v-3a4.09 4.09 0 0 0-.11-1.26 1.13 1.13 0 0 0-1.14-.74 1.45 1.45 0 0 0-1.26.7 3 3 0 0 0-.26 1.54v2.74h-1v-8.44h1V25a2.15 2.15 0 0 1 1.7-.74 2 2 0 0 1 1.44.48 1.64 1.64 0 0 1 .24.28 3 3 0 0 1 .35 1.79v3.27zm7.15-.93a2.47 2.47 0 0 1-2.18 1.11 3 3 0 0 1-1.19-.22 2.79 2.79 0 0 1-1.58-2.83 2.92 2.92 0 0 1 .63-2 2.72 2.72 0 0 1 2.1-1 3 3 0 0 1 .89.15 2.43 2.43 0 0 1 1.46 1.39 4.22 4.22 0 0 1 .27 1.68H244a2.12 2.12 0 0 0 .81 1.83 1.89 1.89 0 0 0 1 .29 1.3 1.3 0 0 0 .95-.35 1.94 1.94 0 0 0 .31-.37 2.41 2.41 0 0 0 .23-.6l1 .13a4.67 4.67 0 0 1-.43.79zm-.76-3a1.57 1.57 0 0 0-1.53-1.19c-1 0-1.52.84-1.61 1.74h3.23a2.78 2.78 0 0 0-.09-.51zm4.55-.75a1.39 1.39 0 0 0-1.14 1 3.5 3.5 0 0 0-.08 1v2.61h-1v-5.57h1v1a2 2 0 0 1 .53-.65 2.16 2.16 0 0 1 1.4-.46v1a1.82 1.82 0 0 0-.71.07zm6.22 3.75a2.48 2.48 0 0 1-2.19 1.11 3 3 0 0 1-1.18-.22 2.8 2.8 0 0 1-1.59-2.83 2.91 2.91 0 0 1 .64-2 2.69 2.69 0 0 1 2.1-1 3 3 0 0 1 .89.15 2.42 2.42 0 0 1 1.45 1.39 4 4 0 0 1 .28 1.68H254a2.12 2.12 0 0 0 .82 1.83 1.89 1.89 0 0 0 1 .29 1.3 1.3 0 0 0 1-.35 1.94 1.94 0 0 0 .31-.37 3.72 3.72 0 0 0 .23-.6l1 .13a4.67 4.67 0 0 1-.48.79zm-.76-3a1.57 1.57 0 0 0-1.53-1.19 1.68 1.68 0 0 0-1.59 1.78h3.23a2.78 2.78 0 0 0-.11-.55zm7.03 4.03c-.54 0-.81-.13-1-.35s-.13-.44-.13-.93v-3.67h-.91v-.79h.91v-1.79h1v1.79h1v.79h-1v3.24a1.72 1.72 0 0 0 .07.79.35.35 0 0 0 .35.16 1.94 1.94 0 0 0 .6-.13v.79a5.15 5.15 0 0 1-.89.1zm5.85-.1v-3a4.08 4.08 0 0 0-.1-1.26 1.14 1.14 0 0 0-1.14-.74 1.45 1.45 0 0 0-1.26.7 3 3 0 0 0-.27 1.54v2.74h-.95v-8.44h.95v3.38a2.12 2.12 0 0 1 1.7-.74 2 2 0 0 1 1.44.48 1.64 1.64 0 0 1 .24.28 3 3 0 0 1 .35 1.79v3.27zm7.14-.93A2.48 2.48 0 0 1 275 30.3a3 3 0 0 1-1.18-.22 2.8 2.8 0 0 1-1.59-2.83 2.91 2.91 0 0 1 .64-2 2.69 2.69 0 0 1 2.1-1 3 3 0 0 1 .89.15 2.42 2.42 0 0 1 1.42 1.34 4 4 0 0 1 .28 1.68h-4.3a2.12 2.12 0 0 0 .74 1.88 1.89 1.89 0 0 0 1 .29 1.3 1.3 0 0 0 .95-.35 1.94 1.94 0 0 0 .31-.37 3.72 3.72 0 0 0 .23-.6l1 .13a4.67 4.67 0 0 1-.35.79zm-.76-3a1.57 1.57 0 0 0-1.53-1.19 1.68 1.68 0 0 0-1.61 1.74h3.23a2.78 2.78 0 0 0-.09-.51zm10.26 3a2.47 2.47 0 0 1-2.18 1.11 3 3 0 0 1-1.19-.22 2.79 2.79 0 0 1-1.58-2.83 2.92 2.92 0 0 1 .63-2 2.72 2.72 0 0 1 2.1-1 2.91 2.91 0 0 1 .89.15 2.43 2.43 0 0 1 1.43 1.34 4.22 4.22 0 0 1 .27 1.68h-4.29a2.15 2.15 0 0 0 .81 1.83 1.89 1.89 0 0 0 1 .29 1.3 1.3 0 0 0 .95-.35 1.94 1.94 0 0 0 .31-.37 2.41 2.41 0 0 0 .23-.6l1 .13a4 4 0 0 1-.38.84zm-.75-3a1.59 1.59 0 0 0-1.54-1.19c-1 0-1.52.84-1.61 1.74H286a4.27 4.27 0 0 0-.11-.51zm2.39 3.93v-8.46h.91v8.46zm7.11-.93a2.47 2.47 0 0 1-2.18 1.11 3 3 0 0 1-1.19-.22 2.79 2.79 0 0 1-1.58-2.83 2.92 2.92 0 0 1 .63-2 2.72 2.72 0 0 1 2.1-1 3 3 0 0 1 .89.15 2.42 2.42 0 0 1 1.42 1.34 4 4 0 0 1 .28 1.68h-4.29a2.1 2.1 0 0 0 .81 1.83 1.89 1.89 0 0 0 1 .29 1.3 1.3 0 0 0 .95-.35 1.94 1.94 0 0 0 .31-.37 2.93 2.93 0 0 0 .23-.6l1 .13a4.67 4.67 0 0 1-.38.84zm-.76-3A1.57 1.57 0 0 0 293.1 25a1.68 1.68 0 0 0-1.61 1.74h3.23a2.78 2.78 0 0 0-.09-.51zm9.12 3.93v-3.31c0-.55.09-1.18-.51-1.5a1.45 1.45 0 0 0-.52-.11 1.51 1.51 0 0 0-1.36.93 2.74 2.74 0 0 0-.07.82v3.17h-.93V27c0-.53.09-1.22-.43-1.56a1 1 0 0 0-.62-.18 1 1 0 0 0-.34.05 1.43 1.43 0 0 0-1 .79 1.85 1.85 0 0 0-.08.72v3.35H297v-5.69h.9v.75a3.12 3.12 0 0 1 .36-.37 1.88 1.88 0 0 1 1.33-.56 1.57 1.57 0 0 1 1.18.52 3.58 3.58 0 0 1 .34.52 1.7 1.7 0 0 0 .19-.19 2.46 2.46 0 0 1 1.7-.85 1.76 1.76 0 0 1 1.31.62 2.42 2.42 0 0 1 .38 1.67v3.53zm7.14-.93a2.46 2.46 0 0 1-2.18 1.11 3 3 0 0 1-1.19-.22 2.81 2.81 0 0 1-1.58-2.83 3 3 0 0 1 .63-2 2.72 2.72 0 0 1 2.1-1 2.91 2.91 0 0 1 .89.15 2.4 2.4 0 0 1 1.44 1.39 4.22 4.22 0 0 1 .27 1.68H307a2.12 2.12 0 0 0 .82 1.83 1.87 1.87 0 0 0 1 .29 1.28 1.28 0 0 0 .94-.35 1.9 1.9 0 0 0 .32-.37 2.7 2.7 0 0 0 .22-.6l1 .13a3.45 3.45 0 0 1-.41.79zm-.75-3A1.59 1.59 0 0 0 308.6 25c-1 0-1.52.84-1.61 1.74h3.23a3 3 0 0 0-.08-.51zm6.09 3.93v-3.59a1.21 1.21 0 0 0-.43-1.08 1.35 1.35 0 0 0-.85-.25 1.44 1.44 0 0 0-1.06.42 1.38 1.38 0 0 0-.33.51 1.87 1.87 0 0 0-.11.78v3.21h-1v-5.64h1v.82a2 2 0 0 1 .3-.39 2.06 2.06 0 0 1 3.08.17 2.61 2.61 0 0 1 .35 1.67v3.37zm3.94.1c-.54 0-.81-.13-1-.35s-.13-.44-.13-.93v-3.67h-.91v-.79h.91v-1.79h1v1.79h1v.79h-1v3.24a1.87 1.87 0 0 0 .07.79.36.36 0 0 0 .35.16 1.84 1.84 0 0 0 .6-.13v.79a5 5 0 0 1-.89.1zm6.42-.85a2.42 2.42 0 0 1-2.14.93 3.47 3.47 0 0 1-1.67-.4 1.47 1.47 0 0 1-.41-.36 2.51 2.51 0 0 1-.52-1.24l1.09-.15a1.34 1.34 0 0 0 .31 1 2 2 0 0 0 2.32.11.79.79 0 0 0 .26-.62.91.91 0 0 0-.1-.42c-.21-.33-.76-.42-1.07-.48l-.55-.11a3.89 3.89 0 0 1-1.33-.45 1.3 1.3 0 0 1-.69-1.2 1.52 1.52 0 0 1 .3-.92 2.76 2.76 0 0 1 4 .24 2.35 2.35 0 0 1 .3.86l-1 .12a1.27 1.27 0 0 0-.08-.52 1.52 1.52 0 0 0-1.43-.72c-.78 0-1.11.47-1.11.83a.57.57 0 0 0 .08.29c.18.3.61.44 1.29.59l.55.13c.17 0 .35.1.51.15.75.23 1.37.63 1.37 1.5a1.57 1.57 0 0 1-.28.84z"/><use xlink:href="#B"/><path d="M188.71 44.52v-3a4.09 4.09 0 0 0-.11-1.26 1.13 1.13 0 0 0-1.14-.74 1.45 1.45 0 0 0-1.26.7 3 3 0 0 0-.26 1.54v2.74h-1v-8.44h1v3.38a2.15 2.15 0 0 1 1.7-.74 2 2 0 0 1 1.44.48 1.28 1.28 0 0 1 .24.28 2.91 2.91 0 0 1 .35 1.79v3.27zm6.95.08a1.15 1.15 0 0 1-.6-.15.79.79 0 0 1-.19-.21 1.08 1.08 0 0 1-.2-.48 2.5 2.5 0 0 1-1.93.92 2.37 2.37 0 0 1-.78-.12 1.57 1.57 0 0 1-1.14-1.5 1.54 1.54 0 0 1 .62-1.22 4.71 4.71 0 0 1 2.29-.64l.86-.06v-.47a1.28 1.28 0 0 0-2.41-.56 1.43 1.43 0 0 0-.06.51l-1-.06a2.27 2.27 0 0 1 .1-.56 2 2 0 0 1 2.07-1.3 3.35 3.35 0 0 1 .89.12 1.76 1.76 0 0 1 1.26 1 3.4 3.4 0 0 1 .12 1.21v2.22a.39.39 0 0 0 .42.43 1.35 1.35 0 0 0 .29 0v.8a1.69 1.69 0 0 1-.61.12zm-1.07-2.73v-.1a12.23 12.23 0 0 0-2 .4 1 1 0 0 0-.69.87c0 .42.31.84 1.07.84a1.55 1.55 0 0 0 1.65-1.67 1.79 1.79 0 0 1-.03-.34zm4.05 2.75c-.54 0-.82-.13-1-.35s-.14-.44-.14-.93v-3.67h-.91v-.79h.91v-1.79h1v1.79h1v.79h-1v3.24a1.72 1.72 0 0 0 .07.79.35.35 0 0 0 .35.17 2 2 0 0 0 .6-.14v.79a5.13 5.13 0 0 1-.88.1zm7.28.94a8.53 8.53 0 0 1-.36.88 1.36 1.36 0 0 1-1.4.88 3 3 0 0 1-.86-.12v-.86a2.41 2.41 0 0 0 .62.09.93.93 0 0 0 .52-.12 1.9 1.9 0 0 0 .6-1.05l.24-.7-1.92-5.68h1l1.42 4.48 1.5-4.48h1zm7.88-1.8a2.58 2.58 0 0 1-2.1.94 2.68 2.68 0 0 1-1.95-.74 3 3 0 0 1-.83-2.23 3.3 3.3 0 0 1 .65-2 2.55 2.55 0 0 1 2.17-1 3.06 3.06 0 0 1 1.13.21 2.8 2.8 0 0 1 1.59 2.8 3.32 3.32 0 0 1-.66 2.02zm-.66-3.5a1.36 1.36 0 0 0-.35-.44 1.57 1.57 0 0 0-1-.36c-1.81 0-1.8 2-1.8 2.31a3.86 3.86 0 0 0 0 .57 1.7 1.7 0 0 0 1.69 1.6 1.59 1.59 0 0 0 1.35-.71 3.24 3.24 0 0 0 .38-1.54 3 3 0 0 0-.27-1.43zm6.31 4.26v-.86a2 2 0 0 1-.24.29 2.35 2.35 0 0 1-1.68.72 1.8 1.8 0 0 1-1.51-.74 3.28 3.28 0 0 1-.29-1.74v-3.31h.95v3.21a2.58 2.58 0 0 0 .13 1.14 1.07 1.07 0 0 0 1 .54 1.65 1.65 0 0 0 1.35-.65 2.38 2.38 0 0 0 .27-1.41v-2.83h.94v5.64zm3.2-5.27h-.57a5.8 5.8 0 0 0 .4-1.87H222v-1.32h1.19v.62a6.71 6.71 0 0 1-.54 2.57zm2.1 5.27v-8.46h.91v8.46zm2.49 0v-8.46h.91v8.46zm9.46 0v-3.59a1.21 1.21 0 0 0-.43-1.08 1.39 1.39 0 0 0-.86-.25 1.42 1.42 0 0 0-1 .42 1.5 1.5 0 0 0-.34.51 2 2 0 0 0-.1.78v3.21h-1v-5.64h1v.82a1.69 1.69 0 0 1 .3-.39 2 2 0 0 1 1.47-.61 2 2 0 0 1 1.61.78 2.61 2.61 0 0 1 .35 1.67v3.37zm7.16-.93a2.47 2.47 0 0 1-2.18 1.11 3 3 0 0 1-1.19-.22 2.81 2.81 0 0 1-1.58-2.83 3 3 0 0 1 .63-2 2.72 2.72 0 0 1 2.1-1 2.91 2.91 0 0 1 .89.15 2.42 2.42 0 0 1 1.47 1.4 4.12 4.12 0 0 1 .27 1.67h-4.29a2.12 2.12 0 0 0 .82 1.83 1.84 1.84 0 0 0 1 .29 1.3 1.3 0 0 0 .95-.35 1.43 1.43 0 0 0 .31-.37 2.41 2.41 0 0 0 .23-.6l1 .13a3.45 3.45 0 0 1-.43.79zm-.75-3a1.59 1.59 0 0 0-1.54-1.19c-1 0-1.52.84-1.61 1.74h3.23a3 3 0 0 0-.08-.51zm7 3a2.46 2.46 0 0 1-2.18 1.11 3 3 0 0 1-1.19-.22 2.81 2.81 0 0 1-1.58-2.83 2.91 2.91 0 0 1 .64-2 2.68 2.68 0 0 1 2.09-1 2.91 2.91 0 0 1 .89.15 2.4 2.4 0 0 1 1.43 1.35 4.12 4.12 0 0 1 .27 1.67h-4.29a2.12 2.12 0 0 0 .81 1.88 1.87 1.87 0 0 0 1 .29 1.28 1.28 0 0 0 .94-.35 1.63 1.63 0 0 0 .32-.37 2.7 2.7 0 0 0 .22-.6l1 .13a3.45 3.45 0 0 1-.37.79zm-.75-3a1.58 1.58 0 0 0-1.54-1.19 1.68 1.68 0 0 0-1.6 1.74h3.22a3 3 0 0 0-.08-.51zm6.64 3.93v-.71a2.37 2.37 0 0 1-1.94.89 2.29 2.29 0 0 1-1.9-.85 3.69 3.69 0 0 1-.16-4.15 2.43 2.43 0 0 1 2-1 2.6 2.6 0 0 1 1.61.56 2.31 2.31 0 0 1 .34.36v-3.56h.95v8.46zm0-3.56a1.71 1.71 0 0 0-1.67-1.39 1.66 1.66 0 0 0-1.31.59 2.3 2.3 0 0 0-.48 1.56 2.49 2.49 0 0 0 .44 1.52 1.56 1.56 0 0 0 1.33.61 1.68 1.68 0 0 0 .91-.24 2.09 2.09 0 0 0 .85-1.92 3.4 3.4 0 0 0-.17-.69zm8.18-3.96a2.2 2.2 0 0 0-.52-.06.65.65 0 0 0-.61.32 1.19 1.19 0 0 0-.11.68v1H264v.79h-1.07v4.85H262v-4.91h-.94v-.79h.94v-.5a4 4 0 0 1 .14-1.48 1.35 1.35 0 0 1 1.34-.78 4 4 0 0 1 .7.07zm5.37 6.76a2.58 2.58 0 0 1-2.1.94 2.68 2.68 0 0 1-1.95-.7 3 3 0 0 1-.83-2.23 3.3 3.3 0 0 1 .65-2 2.55 2.55 0 0 1 2.17-1 3.06 3.06 0 0 1 1.13.21 2.78 2.78 0 0 1 1.59 2.8 3.32 3.32 0 0 1-.66 1.98zm-.66-3.5a1.48 1.48 0 0 0-.34-.44 1.61 1.61 0 0 0-1-.36c-1.81 0-1.79 2-1.79 2.31a4.39 4.39 0 0 0 0 .57 1.7 1.7 0 0 0 1.69 1.6 1.58 1.58 0 0 0 1.35-.71 3.24 3.24 0 0 0 .38-1.54 3 3 0 0 0-.29-1.43zm4.77-.42a1.37 1.37 0 0 0-1.14 1 3.5 3.5 0 0 0-.08 1v2.61h-1v-5.57h1v1a1.92 1.92 0 0 1 .52-.65 2.19 2.19 0 0 1 1.41-.46v1a1.82 1.82 0 0 0-.71.07z"/><use xlink:href="#B" x="97.02"/><path d="M285.73 44.52v-3a4.09 4.09 0 0 0-.11-1.26 1.13 1.13 0 0 0-1.14-.74 1.45 1.45 0 0 0-1.26.7 3 3 0 0 0-.26 1.54v2.74h-1v-8.44h1v3.38a2.15 2.15 0 0 1 1.7-.74 2 2 0 0 1 1.44.48 1.64 1.64 0 0 1 .24.28 2.91 2.91 0 0 1 .35 1.79v3.27zm2.56-7.36v-1.1h.92v1.1zm0 7.36v-5.64h.92v5.64z"/><use xlink:href="#C"/><use xlink:href="#C" x="9"/><use xlink:href="#B" x="124.02"/><path d="M313.43 44.6a1.15 1.15 0 0 1-.6-.15 1.17 1.17 0 0 1-.2-.21 1.16 1.16 0 0 1-.19-.48 2.5 2.5 0 0 1-1.93.92 2.32 2.32 0 0 1-.78-.12 1.57 1.57 0 0 1-1.14-1.5 1.52 1.52 0 0 1 .61-1.22 4.74 4.74 0 0 1 2.29-.64l.87-.06v-.47a1.28 1.28 0 0 0-2.41-.56 1.24 1.24 0 0 0-.07.51l-1-.06A1.87 1.87 0 0 1 309 40a2 2 0 0 1 2.07-1.3 3.35 3.35 0 0 1 .89.12 1.76 1.76 0 0 1 1.26 1 3.4 3.4 0 0 1 .12 1.21v2.22c0 .12 0 .43.42.43a1.35 1.35 0 0 0 .29 0v.8a1.69 1.69 0 0 1-.62.12zm-1.07-2.73v-.1a12 12 0 0 0-2 .4 1 1 0 0 0-.69.87c0 .42.31.84 1.06.84a1.55 1.55 0 0 0 1.66-1.67 1.79 1.79 0 0 1-.03-.34zm4.04 2.75c-.54 0-.81-.13-1-.35s-.13-.44-.13-.93v-3.67h-.91v-.79h.91v-1.79h1v1.79h1v.79h-1v3.24a1.68 1.68 0 0 0 .08.79.35.35 0 0 0 .34.17 1.93 1.93 0 0 0 .6-.14v.79a5 5 0 0 1-.89.1zm2.14-7.46v-1.1h.92v1.1zm0 7.36v-5.64h.92v5.64zm7.03-.76a2.58 2.58 0 0 1-2.1.94 2.67 2.67 0 0 1-2-.74 3 3 0 0 1-.83-2.23 3.3 3.3 0 0 1 .65-2 2.55 2.55 0 0 1 2.17-1 3 3 0 0 1 1.12.21 2.8 2.8 0 0 1 1.6 2.8 3.39 3.39 0 0 1-.61 2.02zm-.66-3.5a1.51 1.51 0 0 0-.35-.44 1.59 1.59 0 0 0-1-.36c-1.81 0-1.8 2-1.8 2.31a3.86 3.86 0 0 0 0 .57 1.7 1.7 0 0 0 1.69 1.6 1.57 1.57 0 0 0 1.34-.71 3.29 3.29 0 0 0 .39-1.54 3 3 0 0 0-.27-1.43zm6.31 4.26v-3.59a1.21 1.21 0 0 0-.43-1.08 1.35 1.35 0 0 0-.85-.25 1.44 1.44 0 0 0-1.06.42 1.38 1.38 0 0 0-.33.51 1.87 1.87 0 0 0-.11.78v3.21h-1v-5.64h1v.82a2 2 0 0 1 1.77-1 2 2 0 0 1 1.61.78 2.61 2.61 0 0 1 .35 1.67v3.37z"/></g><defs ><path id="B" d="M182.88 44.62c-.54 0-.82-.13-1-.35s-.13-.44-.13-.93v-3.67h-.91v-.79h.91v-1.79h1v1.79h1v.79h-1v3.24a1.87 1.87 0 0 0 .07.79.36.36 0 0 0 .35.17 1.93 1.93 0 0 0 .6-.14v.79a5 5 0 0 1-.89.1z"/><path id="C" d="M295.07 43.77a2.42 2.42 0 0 1-2.14.93 3.48 3.48 0 0 1-1.68-.4 1.63 1.63 0 0 1-.41-.36 2.43 2.43 0 0 1-.51-1.24l1.09-.15a1.3 1.3 0 0 0 .31 1 2 2 0 0 0 2.32.11.79.79 0 0 0 .26-.62.83.83 0 0 0-.11-.42c-.2-.33-.75-.42-1.07-.48l-.55-.11a4 4 0 0 1-1.33-.45 1.29 1.29 0 0 1-.68-1.19 1.52 1.52 0 0 1 .3-.93 2.75 2.75 0 0 1 4 .24 2 2 0 0 1 .3.87l-1 .11a1.27 1.27 0 0 0-.08-.52 1.53 1.53 0 0 0-1.43-.72c-.78 0-1.11.47-1.11.83a.63.63 0 0 0 .08.3c.18.3.61.43 1.28.58l.55.13.52.15c.74.23 1.37.63 1.37 1.5a1.67 1.67 0 0 1-.28.84z"/></defs></svg>